<svg xmlns="http://www.w3.org/2000/svg" width="25" height="25" viewBox="0 0 25 25" fill="none">
<path fill-rule="evenodd" clip-rule="evenodd" d="M5.50452 10.4544C6.24455 10.1638 7.05286 10.007 7.8999 10.007C11.3056 10.007 14.1499 12.5958 14.1499 15.897C14.1499 16.7913 13.9352 17.6394 13.5532 18.397C13.5587 18.397 13.5643 18.397 13.5699 18.397C13.7048 18.397 13.8371 18.4333 13.9531 18.5022L18.1484 20.9954C18.3133 21.0952 18.5414 20.968 18.5154 20.7474C18.5153 20.7472 18.5154 20.7476 18.5154 20.7474L18.1256 17.5889C18.0916 17.3136 18.2123 17.0421 18.4394 16.8829C20.3994 15.509 21.6499 13.3387 21.6499 10.907C21.6499 6.81898 18.0851 3.41699 13.5699 3.41699C9.22237 3.41699 5.75603 6.57095 5.50452 10.4544ZM3.9899 10.907C3.9899 5.89498 8.32514 1.91699 13.5699 1.91699C18.8147 1.91699 23.1499 5.89498 23.1499 10.907C23.1499 13.7155 21.7806 16.2031 19.6679 17.8402L20.0045 20.5673C20.1777 22.0051 18.629 23.0368 17.3745 22.2804C17.3735 22.2798 17.3724 22.2791 17.3714 22.2785L13.3606 19.895C12.94 19.8872 12.526 19.8557 12.1186 19.8001C11.847 19.7631 11.6173 19.5809 11.5194 19.3249C11.4215 19.0689 11.471 18.7799 11.6486 18.5711C12.2809 17.8277 12.6499 16.8974 12.6499 15.897C12.6499 13.5181 10.5742 11.507 7.8999 11.507C6.8842 11.507 5.95665 11.7953 5.18939 12.2953C4.97224 12.4369 4.6974 12.4562 4.46255 12.3465C4.22771 12.2369 4.06613 12.0137 4.03525 11.7564C4.00057 11.4674 3.9899 11.1857 3.9899 10.907Z" fill="#808080"/>
<path fill-rule="evenodd" clip-rule="evenodd" d="M7.8999 11.507C6.8842 11.507 5.95665 11.7953 5.18939 12.2953L5.18372 12.299C3.93959 13.0939 3.1499 14.4156 3.1499 15.897C3.1499 17.3103 3.87171 18.5787 5.02752 19.3809C5.25717 19.5402 5.37912 19.8141 5.34393 20.0914L5.12692 21.8015L7.51694 20.3821C7.63283 20.3133 7.76512 20.277 7.8999 20.277C9.44168 20.277 10.7974 19.6027 11.6414 18.5797L11.6486 18.5711C12.2809 17.8277 12.6499 16.8974 12.6499 15.897C12.6499 13.5181 10.5742 11.507 7.8999 11.507ZM4.37326 11.0368C5.38543 10.378 6.59683 10.007 7.8999 10.007C11.3056 10.007 14.1499 12.5958 14.1499 15.897C14.1499 17.2746 13.6403 18.5427 12.7949 19.5386C11.6993 20.8639 10.0029 21.7145 8.11138 21.7737L5.67676 23.2195C4.68454 23.8226 3.47476 22.9867 3.60504 21.8793L3.60584 21.8726L3.80109 20.3342C2.48807 19.2673 1.6499 17.6808 1.6499 15.897C1.6499 13.8596 2.73897 12.0822 4.37326 11.0368Z" fill="#808080"/>
</svg>